<mxfile host="Electron" agent="Mozilla/5.0 (X11; Linux x86_64) AppleWebKit/537.36 (KHTML, like Gecko) draw.io/26.0.4 Chrome/128.0.6613.186 Electron/32.2.5 Safari/537.36" version="26.0.4">
  <diagram name="Page-1" id="MM71ytjqrywiaRGpUW9g">
    <mxGraphModel dx="1207" dy="1198" grid="1" gridSize="10" guides="1" tooltips="1" connect="1" arrows="1" fold="1" page="1" pageScale="1" pageWidth="850" pageHeight="1100" math="0" shadow="0">
      <root>
        <mxCell id="0" />
        <mxCell id="1" parent="0" />
        <mxCell id="eS0R5GwFsbfKjluQEQp6-2" value="Region sa-east-1" style="points=[[0,0],[0.25,0],[0.5,0],[0.75,0],[1,0],[1,0.25],[1,0.5],[1,0.75],[1,1],[0.75,1],[0.5,1],[0.25,1],[0,1],[0,0.75],[0,0.5],[0,0.25]];outlineConnect=0;gradientColor=none;html=1;whiteSpace=wrap;fontSize=12;fontStyle=0;container=1;pointerEvents=0;collapsible=0;recursiveResize=0;shape=mxgraph.aws4.group;grIcon=mxgraph.aws4.group_region;strokeColor=#00A4A6;fillColor=none;verticalAlign=top;align=left;spacingLeft=30;fontColor=#147EBA;" vertex="1" parent="1">
          <mxGeometry x="25" y="145" width="800" height="810" as="geometry" />
        </mxCell>
        <mxCell id="eS0R5GwFsbfKjluQEQp6-1" value="VPC" style="points=[[0,0],[0.25,0],[0.5,0],[0.75,0],[1,0],[1,0.25],[1,0.5],[1,0.75],[1,1],[0.75,1],[0.5,1],[0.25,1],[0,1],[0,0.75],[0,0.5],[0,0.25]];outlineConnect=0;gradientColor=none;html=1;whiteSpace=wrap;fontSize=12;fontStyle=0;container=1;pointerEvents=0;collapsible=0;recursiveResize=0;shape=mxgraph.aws4.group;grIcon=mxgraph.aws4.group_vpc2;strokeColor=#8C4FFF;fillColor=none;verticalAlign=top;align=left;spacingLeft=30;fontColor=#000000;dashed=0;" vertex="1" parent="eS0R5GwFsbfKjluQEQp6-2">
          <mxGeometry x="10" y="50" width="270" height="710" as="geometry" />
        </mxCell>
        <mxCell id="eS0R5GwFsbfKjluQEQp6-4" value="Interface&lt;div&gt;Endpoint&lt;/div&gt;" style="sketch=0;outlineConnect=0;fontColor=#232F3E;gradientColor=none;fillColor=#8C4FFF;strokeColor=none;dashed=0;verticalLabelPosition=bottom;verticalAlign=top;align=center;html=1;fontSize=12;fontStyle=0;aspect=fixed;pointerEvents=1;shape=mxgraph.aws4.endpoints;" vertex="1" parent="eS0R5GwFsbfKjluQEQp6-1">
          <mxGeometry x="180" y="10" width="78" height="78" as="geometry" />
        </mxCell>
        <mxCell id="eS0R5GwFsbfKjluQEQp6-6" value="Interface&lt;div&gt;Endpoint&lt;/div&gt;" style="sketch=0;outlineConnect=0;fontColor=#232F3E;gradientColor=none;fillColor=#8C4FFF;strokeColor=none;dashed=0;verticalLabelPosition=bottom;verticalAlign=top;align=center;html=1;fontSize=12;fontStyle=0;aspect=fixed;pointerEvents=1;shape=mxgraph.aws4.endpoints;" vertex="1" parent="eS0R5GwFsbfKjluQEQp6-1">
          <mxGeometry x="180" y="150" width="78" height="78" as="geometry" />
        </mxCell>
        <mxCell id="eS0R5GwFsbfKjluQEQp6-9" value="Interface&lt;div&gt;Endpoint&lt;/div&gt;" style="sketch=0;outlineConnect=0;fontColor=#232F3E;gradientColor=none;fillColor=#8C4FFF;strokeColor=none;dashed=0;verticalLabelPosition=bottom;verticalAlign=top;align=center;html=1;fontSize=12;fontStyle=0;aspect=fixed;pointerEvents=1;shape=mxgraph.aws4.endpoints;" vertex="1" parent="eS0R5GwFsbfKjluQEQp6-1">
          <mxGeometry x="180" y="290" width="78" height="78" as="geometry" />
        </mxCell>
        <mxCell id="eS0R5GwFsbfKjluQEQp6-10" value="Resource&lt;div&gt;Endpoint&lt;/div&gt;" style="sketch=0;outlineConnect=0;fontColor=#232F3E;gradientColor=none;fillColor=#8C4FFF;strokeColor=none;dashed=0;verticalLabelPosition=bottom;verticalAlign=top;align=center;html=1;fontSize=12;fontStyle=0;aspect=fixed;pointerEvents=1;shape=mxgraph.aws4.endpoints;" vertex="1" parent="eS0R5GwFsbfKjluQEQp6-1">
          <mxGeometry x="180" y="430" width="78" height="78" as="geometry" />
        </mxCell>
        <mxCell id="eS0R5GwFsbfKjluQEQp6-11" value="Service&lt;div&gt;Network&lt;/div&gt;&lt;div&gt;Endpoint&lt;/div&gt;" style="sketch=0;outlineConnect=0;fontColor=#232F3E;gradientColor=none;fillColor=#8C4FFF;strokeColor=none;dashed=0;verticalLabelPosition=bottom;verticalAlign=top;align=center;html=1;fontSize=12;fontStyle=0;aspect=fixed;pointerEvents=1;shape=mxgraph.aws4.endpoints;" vertex="1" parent="eS0R5GwFsbfKjluQEQp6-1">
          <mxGeometry x="180" y="570" width="78" height="78" as="geometry" />
        </mxCell>
        <mxCell id="eS0R5GwFsbfKjluQEQp6-13" style="edgeStyle=orthogonalEdgeStyle;rounded=0;orthogonalLoop=1;jettySize=auto;html=1;" edge="1" parent="eS0R5GwFsbfKjluQEQp6-1" source="eS0R5GwFsbfKjluQEQp6-12" target="eS0R5GwFsbfKjluQEQp6-4">
          <mxGeometry relative="1" as="geometry">
            <Array as="points">
              <mxPoint x="100" y="50" />
            </Array>
          </mxGeometry>
        </mxCell>
        <mxCell id="eS0R5GwFsbfKjluQEQp6-14" style="edgeStyle=orthogonalEdgeStyle;rounded=0;orthogonalLoop=1;jettySize=auto;html=1;" edge="1" parent="eS0R5GwFsbfKjluQEQp6-1" source="eS0R5GwFsbfKjluQEQp6-12" target="eS0R5GwFsbfKjluQEQp6-11">
          <mxGeometry relative="1" as="geometry">
            <Array as="points">
              <mxPoint x="100" y="610" />
            </Array>
          </mxGeometry>
        </mxCell>
        <mxCell id="eS0R5GwFsbfKjluQEQp6-15" style="edgeStyle=orthogonalEdgeStyle;rounded=0;orthogonalLoop=1;jettySize=auto;html=1;" edge="1" parent="eS0R5GwFsbfKjluQEQp6-1" source="eS0R5GwFsbfKjluQEQp6-12" target="eS0R5GwFsbfKjluQEQp6-6">
          <mxGeometry relative="1" as="geometry">
            <Array as="points">
              <mxPoint x="110" y="189" />
            </Array>
          </mxGeometry>
        </mxCell>
        <mxCell id="eS0R5GwFsbfKjluQEQp6-16" style="edgeStyle=orthogonalEdgeStyle;rounded=0;orthogonalLoop=1;jettySize=auto;html=1;" edge="1" parent="eS0R5GwFsbfKjluQEQp6-1" source="eS0R5GwFsbfKjluQEQp6-12" target="eS0R5GwFsbfKjluQEQp6-10">
          <mxGeometry relative="1" as="geometry">
            <Array as="points">
              <mxPoint x="110" y="470" />
            </Array>
          </mxGeometry>
        </mxCell>
        <mxCell id="eS0R5GwFsbfKjluQEQp6-17" style="edgeStyle=orthogonalEdgeStyle;rounded=0;orthogonalLoop=1;jettySize=auto;html=1;" edge="1" parent="eS0R5GwFsbfKjluQEQp6-1" source="eS0R5GwFsbfKjluQEQp6-12" target="eS0R5GwFsbfKjluQEQp6-9">
          <mxGeometry relative="1" as="geometry" />
        </mxCell>
        <mxCell id="eS0R5GwFsbfKjluQEQp6-12" value="Instances" style="sketch=0;outlineConnect=0;fontColor=#232F3E;gradientColor=none;fillColor=#ED7100;strokeColor=none;dashed=0;verticalLabelPosition=middle;verticalAlign=middle;align=right;html=1;fontSize=12;fontStyle=0;aspect=fixed;pointerEvents=1;shape=mxgraph.aws4.instances;labelPosition=left;spacingRight=5;" vertex="1" parent="eS0R5GwFsbfKjluQEQp6-1">
          <mxGeometry x="70" y="305" width="48" height="48" as="geometry" />
        </mxCell>
        <mxCell id="eS0R5GwFsbfKjluQEQp6-18" value="Amazon Web Services" style="points=[[0,0],[0.25,0],[0.5,0],[0.75,0],[1,0],[1,0.25],[1,0.5],[1,0.75],[1,1],[0.75,1],[0.5,1],[0.25,1],[0,1],[0,0.75],[0,0.5],[0,0.25]];outlineConnect=0;gradientColor=none;html=1;whiteSpace=wrap;fontSize=12;fontStyle=0;container=1;pointerEvents=0;collapsible=0;recursiveResize=0;shape=mxgraph.aws4.group;grIcon=mxgraph.aws4.group_vpc2;strokeColor=#8C4FFF;fillColor=none;verticalAlign=top;align=left;spacingLeft=30;fontColor=#000000;dashed=0;" vertex="1" parent="eS0R5GwFsbfKjluQEQp6-2">
          <mxGeometry x="320" y="20" width="470" height="130" as="geometry" />
        </mxCell>
        <mxCell id="eS0R5GwFsbfKjluQEQp6-32" value="" style="sketch=0;points=[[0,0,0],[0.25,0,0],[0.5,0,0],[0.75,0,0],[1,0,0],[0,1,0],[0.25,1,0],[0.5,1,0],[0.75,1,0],[1,1,0],[0,0.25,0],[0,0.5,0],[0,0.75,0],[1,0.25,0],[1,0.5,0],[1,0.75,0]];points=[[0,0,0],[0.25,0,0],[0.5,0,0],[0.75,0,0],[1,0,0],[0,1,0],[0.25,1,0],[0.5,1,0],[0.75,1,0],[1,1,0],[0,0.25,0],[0,0.5,0],[0,0.75,0],[1,0.25,0],[1,0.5,0],[1,0.75,0]];outlineConnect=0;fontColor=#232F3E;fillColor=#E7157B;strokeColor=#ffffff;dashed=0;verticalLabelPosition=bottom;verticalAlign=top;align=center;html=1;fontSize=12;fontStyle=0;aspect=fixed;shape=mxgraph.aws4.resourceIcon;resIcon=mxgraph.aws4.cloudwatch_2;" vertex="1" parent="eS0R5GwFsbfKjluQEQp6-18">
          <mxGeometry x="16" y="30" width="78" height="78" as="geometry" />
        </mxCell>
        <mxCell id="eS0R5GwFsbfKjluQEQp6-33" value="" style="sketch=0;points=[[0,0,0],[0.25,0,0],[0.5,0,0],[0.75,0,0],[1,0,0],[0,1,0],[0.25,1,0],[0.5,1,0],[0.75,1,0],[1,1,0],[0,0.25,0],[0,0.5,0],[0,0.75,0],[1,0.25,0],[1,0.5,0],[1,0.75,0]];outlineConnect=0;fontColor=#232F3E;fillColor=#8C4FFF;strokeColor=#ffffff;dashed=0;verticalLabelPosition=bottom;verticalAlign=top;align=center;html=1;fontSize=12;fontStyle=0;aspect=fixed;shape=mxgraph.aws4.resourceIcon;resIcon=mxgraph.aws4.api_gateway;" vertex="1" parent="eS0R5GwFsbfKjluQEQp6-18">
          <mxGeometry x="106" y="30" width="78" height="78" as="geometry" />
        </mxCell>
        <mxCell id="eS0R5GwFsbfKjluQEQp6-34" value="" style="sketch=0;points=[[0,0,0],[0.25,0,0],[0.5,0,0],[0.75,0,0],[1,0,0],[0,1,0],[0.25,1,0],[0.5,1,0],[0.75,1,0],[1,1,0],[0,0.25,0],[0,0.5,0],[0,0.75,0],[1,0.25,0],[1,0.5,0],[1,0.75,0]];outlineConnect=0;fontColor=#232F3E;fillColor=#ED7100;strokeColor=#ffffff;dashed=0;verticalLabelPosition=bottom;verticalAlign=top;align=center;html=1;fontSize=12;fontStyle=0;aspect=fixed;shape=mxgraph.aws4.resourceIcon;resIcon=mxgraph.aws4.lambda;" vertex="1" parent="eS0R5GwFsbfKjluQEQp6-18">
          <mxGeometry x="196" y="30" width="78" height="78" as="geometry" />
        </mxCell>
        <mxCell id="eS0R5GwFsbfKjluQEQp6-35" value="" style="sketch=0;points=[[0,0,0],[0.25,0,0],[0.5,0,0],[0.75,0,0],[1,0,0],[0,1,0],[0.25,1,0],[0.5,1,0],[0.75,1,0],[1,1,0],[0,0.25,0],[0,0.5,0],[0,0.75,0],[1,0.25,0],[1,0.5,0],[1,0.75,0]];outlineConnect=0;fontColor=#232F3E;fillColor=#7AA116;strokeColor=#ffffff;dashed=0;verticalLabelPosition=bottom;verticalAlign=top;align=center;html=1;fontSize=12;fontStyle=0;aspect=fixed;shape=mxgraph.aws4.resourceIcon;resIcon=mxgraph.aws4.s3;" vertex="1" parent="eS0R5GwFsbfKjluQEQp6-18">
          <mxGeometry x="286" y="30" width="78" height="78" as="geometry" />
        </mxCell>
        <mxCell id="eS0R5GwFsbfKjluQEQp6-31" value="" style="sketch=0;points=[[0,0,0],[0.25,0,0],[0.5,0,0],[0.75,0,0],[1,0,0],[0,1,0],[0.25,1,0],[0.5,1,0],[0.75,1,0],[1,1,0],[0,0.25,0],[0,0.5,0],[0,0.75,0],[1,0.25,0],[1,0.5,0],[1,0.75,0]];outlineConnect=0;fontColor=#232F3E;fillColor=#C925D1;strokeColor=#ffffff;dashed=0;verticalLabelPosition=bottom;verticalAlign=top;align=center;html=1;fontSize=12;fontStyle=0;aspect=fixed;shape=mxgraph.aws4.resourceIcon;resIcon=mxgraph.aws4.rds;" vertex="1" parent="eS0R5GwFsbfKjluQEQp6-18">
          <mxGeometry x="380" y="30" width="78" height="78" as="geometry" />
        </mxCell>
        <mxCell id="eS0R5GwFsbfKjluQEQp6-36" value="Third-party VPC" style="points=[[0,0],[0.25,0],[0.5,0],[0.75,0],[1,0],[1,0.25],[1,0.5],[1,0.75],[1,1],[0.75,1],[0.5,1],[0.25,1],[0,1],[0,0.75],[0,0.5],[0,0.25]];outlineConnect=0;gradientColor=none;html=1;whiteSpace=wrap;fontSize=12;fontStyle=0;container=1;pointerEvents=0;collapsible=0;recursiveResize=0;shape=mxgraph.aws4.group;grIcon=mxgraph.aws4.group_vpc2;strokeColor=#8C4FFF;fillColor=none;verticalAlign=top;align=left;spacingLeft=30;fontColor=#AAB7B8;dashed=0;" vertex="1" parent="eS0R5GwFsbfKjluQEQp6-2">
          <mxGeometry x="320" y="340" width="470" height="130" as="geometry" />
        </mxCell>
        <mxCell id="eS0R5GwFsbfKjluQEQp6-54" value="" style="sketch=0;points=[[0,0,0],[0.25,0,0],[0.5,0,0],[0.75,0,0],[1,0,0],[0,1,0],[0.25,1,0],[0.5,1,0],[0.75,1,0],[1,1,0],[0,0.25,0],[0,0.5,0],[0,0.75,0],[1,0.25,0],[1,0.5,0],[1,0.75,0]];gradientDirection=north;outlineConnect=0;fontColor=#232F3E;gradientColor=none;fillColor=#1E262E;strokeColor=#ffffff;dashed=0;verticalLabelPosition=bottom;verticalAlign=top;align=center;html=1;fontSize=12;fontStyle=0;aspect=fixed;shape=mxgraph.aws4.resourceIcon;resIcon=mxgraph.aws4.general;" vertex="1" parent="eS0R5GwFsbfKjluQEQp6-36">
          <mxGeometry x="184" y="26" width="78" height="78" as="geometry" />
        </mxCell>
        <mxCell id="eS0R5GwFsbfKjluQEQp6-42" value="Provider VPC" style="points=[[0,0],[0.25,0],[0.5,0],[0.75,0],[1,0],[1,0.25],[1,0.5],[1,0.75],[1,1],[0.75,1],[0.5,1],[0.25,1],[0,1],[0,0.75],[0,0.5],[0,0.25]];outlineConnect=0;gradientColor=none;html=1;whiteSpace=wrap;fontSize=12;fontStyle=0;container=1;pointerEvents=0;collapsible=0;recursiveResize=0;shape=mxgraph.aws4.group;grIcon=mxgraph.aws4.group_vpc2;strokeColor=#8C4FFF;fillColor=none;verticalAlign=top;align=left;spacingLeft=30;fontColor=#000000;dashed=0;" vertex="1" parent="eS0R5GwFsbfKjluQEQp6-2">
          <mxGeometry x="320" y="180" width="470" height="130" as="geometry" />
        </mxCell>
        <mxCell id="eS0R5GwFsbfKjluQEQp6-48" style="edgeStyle=orthogonalEdgeStyle;rounded=0;orthogonalLoop=1;jettySize=auto;html=1;" edge="1" parent="eS0R5GwFsbfKjluQEQp6-42" source="eS0R5GwFsbfKjluQEQp6-46" target="eS0R5GwFsbfKjluQEQp6-47">
          <mxGeometry relative="1" as="geometry" />
        </mxCell>
        <mxCell id="eS0R5GwFsbfKjluQEQp6-46" value="" style="sketch=0;outlineConnect=0;fontColor=#232F3E;gradientColor=none;fillColor=#8C4FFF;strokeColor=none;dashed=0;verticalLabelPosition=bottom;verticalAlign=top;align=center;html=1;fontSize=12;fontStyle=0;aspect=fixed;pointerEvents=1;shape=mxgraph.aws4.network_load_balancer;" vertex="1" parent="eS0R5GwFsbfKjluQEQp6-42">
          <mxGeometry x="70" y="30" width="78" height="78" as="geometry" />
        </mxCell>
        <mxCell id="eS0R5GwFsbfKjluQEQp6-47" value="Instances" style="sketch=0;outlineConnect=0;fontColor=#232F3E;gradientColor=none;fillColor=#ED7100;strokeColor=none;dashed=0;verticalLabelPosition=bottom;verticalAlign=top;align=center;html=1;fontSize=12;fontStyle=0;aspect=fixed;pointerEvents=1;shape=mxgraph.aws4.instances;labelPosition=center;spacingRight=0;" vertex="1" parent="eS0R5GwFsbfKjluQEQp6-42">
          <mxGeometry x="360" y="45" width="48" height="48" as="geometry" />
        </mxCell>
        <mxCell id="eS0R5GwFsbfKjluQEQp6-43" value="VPC resource" style="points=[[0,0],[0.25,0],[0.5,0],[0.75,0],[1,0],[1,0.25],[1,0.5],[1,0.75],[1,1],[0.75,1],[0.5,1],[0.25,1],[0,1],[0,0.75],[0,0.5],[0,0.25]];outlineConnect=0;gradientColor=none;html=1;whiteSpace=wrap;fontSize=12;fontStyle=0;container=1;pointerEvents=0;collapsible=0;recursiveResize=0;shape=mxgraph.aws4.group;grIcon=mxgraph.aws4.group_vpc2;strokeColor=#8C4FFF;fillColor=none;verticalAlign=top;align=left;spacingLeft=30;fontColor=#000000;dashed=0;" vertex="1" parent="eS0R5GwFsbfKjluQEQp6-2">
          <mxGeometry x="320" y="500" width="470" height="130" as="geometry" />
        </mxCell>
        <mxCell id="eS0R5GwFsbfKjluQEQp6-56" value="" style="sketch=0;points=[[0,0,0],[0.25,0,0],[0.5,0,0],[0.75,0,0],[1,0,0],[0,1,0],[0.25,1,0],[0.5,1,0],[0.75,1,0],[1,1,0],[0,0.25,0],[0,0.5,0],[0,0.75,0],[1,0.25,0],[1,0.5,0],[1,0.75,0]];outlineConnect=0;fontColor=#232F3E;fillColor=#C925D1;strokeColor=#ffffff;dashed=0;verticalLabelPosition=bottom;verticalAlign=top;align=center;html=1;fontSize=12;fontStyle=0;aspect=fixed;shape=mxgraph.aws4.resourceIcon;resIcon=mxgraph.aws4.database;" vertex="1" parent="eS0R5GwFsbfKjluQEQp6-43">
          <mxGeometry x="330" y="26" width="78" height="78" as="geometry" />
        </mxCell>
        <mxCell id="eS0R5GwFsbfKjluQEQp6-57" value="" style="sketch=0;outlineConnect=0;fontColor=#232F3E;gradientColor=none;fillColor=#8C4FFF;strokeColor=none;dashed=0;verticalLabelPosition=bottom;verticalAlign=top;align=center;html=1;fontSize=12;fontStyle=0;aspect=fixed;pointerEvents=1;shape=mxgraph.aws4.endpoint;" vertex="1" parent="eS0R5GwFsbfKjluQEQp6-43">
          <mxGeometry x="80" y="26" width="78" height="78" as="geometry" />
        </mxCell>
        <mxCell id="eS0R5GwFsbfKjluQEQp6-44" value="VPC Lattice Service Network" style="points=[[0,0],[0.25,0],[0.5,0],[0.75,0],[1,0],[1,0.25],[1,0.5],[1,0.75],[1,1],[0.75,1],[0.5,1],[0.25,1],[0,1],[0,0.75],[0,0.5],[0,0.25]];outlineConnect=0;gradientColor=none;html=1;whiteSpace=wrap;fontSize=12;fontStyle=0;container=1;pointerEvents=0;collapsible=0;recursiveResize=0;shape=mxgraph.aws4.group;grIcon=mxgraph.aws4.group_vpc2;strokeColor=#8C4FFF;fillColor=none;verticalAlign=top;align=left;spacingLeft=30;fontColor=#000000;dashed=0;" vertex="1" parent="eS0R5GwFsbfKjluQEQp6-2">
          <mxGeometry x="320" y="660" width="470" height="130" as="geometry" />
        </mxCell>
        <mxCell id="eS0R5GwFsbfKjluQEQp6-55" value="" style="sketch=0;points=[[0,0,0],[0.25,0,0],[0.5,0,0],[0.75,0,0],[1,0,0],[0,1,0],[0.25,1,0],[0.5,1,0],[0.75,1,0],[1,1,0],[0,0.25,0],[0,0.5,0],[0,0.75,0],[1,0.25,0],[1,0.5,0],[1,0.75,0]];outlineConnect=0;fontColor=#232F3E;fillColor=#8C4FFF;strokeColor=#ffffff;dashed=0;verticalLabelPosition=bottom;verticalAlign=top;align=center;html=1;fontSize=12;fontStyle=0;aspect=fixed;shape=mxgraph.aws4.resourceIcon;resIcon=mxgraph.aws4.vpc_lattice;" vertex="1" parent="eS0R5GwFsbfKjluQEQp6-44">
          <mxGeometry x="196" y="26" width="78" height="78" as="geometry" />
        </mxCell>
        <mxCell id="eS0R5GwFsbfKjluQEQp6-49" style="edgeStyle=orthogonalEdgeStyle;rounded=0;orthogonalLoop=1;jettySize=auto;html=1;" edge="1" parent="eS0R5GwFsbfKjluQEQp6-2" source="eS0R5GwFsbfKjluQEQp6-4" target="eS0R5GwFsbfKjluQEQp6-18">
          <mxGeometry relative="1" as="geometry" />
        </mxCell>
        <mxCell id="eS0R5GwFsbfKjluQEQp6-50" style="edgeStyle=orthogonalEdgeStyle;rounded=0;orthogonalLoop=1;jettySize=auto;html=1;" edge="1" parent="eS0R5GwFsbfKjluQEQp6-2" source="eS0R5GwFsbfKjluQEQp6-6" target="eS0R5GwFsbfKjluQEQp6-46">
          <mxGeometry relative="1" as="geometry" />
        </mxCell>
        <mxCell id="eS0R5GwFsbfKjluQEQp6-51" style="edgeStyle=orthogonalEdgeStyle;rounded=0;orthogonalLoop=1;jettySize=auto;html=1;" edge="1" parent="eS0R5GwFsbfKjluQEQp6-2" source="eS0R5GwFsbfKjluQEQp6-9" target="eS0R5GwFsbfKjluQEQp6-36">
          <mxGeometry relative="1" as="geometry" />
        </mxCell>
        <mxCell id="eS0R5GwFsbfKjluQEQp6-52" style="edgeStyle=orthogonalEdgeStyle;rounded=0;orthogonalLoop=1;jettySize=auto;html=1;" edge="1" parent="eS0R5GwFsbfKjluQEQp6-2" source="eS0R5GwFsbfKjluQEQp6-10" target="eS0R5GwFsbfKjluQEQp6-57">
          <mxGeometry relative="1" as="geometry">
            <Array as="points">
              <mxPoint x="334" y="540" />
              <mxPoint x="334" y="565" />
            </Array>
          </mxGeometry>
        </mxCell>
        <mxCell id="eS0R5GwFsbfKjluQEQp6-53" style="edgeStyle=orthogonalEdgeStyle;rounded=0;orthogonalLoop=1;jettySize=auto;html=1;" edge="1" parent="eS0R5GwFsbfKjluQEQp6-2" source="eS0R5GwFsbfKjluQEQp6-11" target="eS0R5GwFsbfKjluQEQp6-44">
          <mxGeometry relative="1" as="geometry" />
        </mxCell>
      </root>
    </mxGraphModel>
  </diagram>
</mxfile>
